<svg xmlns="http://www.w3.org/2000/svg" xmlns:xlink="http://www.w3.org/1999/xlink" viewBox="0 0 9.75 15.46">
    <path d="M5.12,15.46c-.75,0-1.23-.33-1.23-.56V13.73l-.28,0A3.84,3.84,0,0,1,0,10.15H2.38a2.64,2.64,0,0,0,2.79,1.7c1.88,0,2-1.06,2-1.39,0-.7-.52-1.15-1.54-1.35l-2-.44C1.44,8.2.44,7.2.44,5.45A3.28,3.28,0,0,1,3.61,1.89l.28,0V.63C3.89.33,4.42,0,5.12,0S6.35.35,6.35.66V1.91L6.61,2A3.53,3.53,0,0,1,9.69,5.2H7.3A2,2,0,0,0,5.09,3.68c-1.26,0-2,.59-2,1.53s.83,1.28,1.64,1.45L6.37,7c2.37.52,3.38,1.45,3.38,3.12a3.25,3.25,0,0,1-3.12,3.51l-.28,0v1.17C6.35,15.12,5.87,15.46,5.12,15.46Z" />
</svg>