<svg xmlns="http://www.w3.org/2000/svg" xmlns:xlink="http://www.w3.org/1999/xlink" viewBox="0 0 42 42">
    <defs><path id="xcwqa" d="M977.21 610c0 4.4-3.6 8-8 8h-24c-4.4 0-8-3.6-8-8v-24c0-4.4 3.6-8 8-8h24c4.4 0 8 3.6 8 8v24z"/><path id="xcwqb" d="M958.63 609.7h-1.24V596l-3.59.42v-.85l4.83-.97z"/><path id="xcwqc" d="M968.46 578h-24c-4 0-7.25 3.25-7.25 7.25v1.17h38.5v-1.17c0-4-3.25-7.25-7.25-7.25z"/></defs><g><g transform="translate(-936 -577)"><use fill="#fff" fill-opacity="0" stroke="#318bfa" stroke-miterlimit="50" stroke-width="1.5" xlink:href="#xcwqa"/></g><g transform="translate(-936 -577)"><use fill="#318bfa" xlink:href="#xcwqb"/></g><g opacity=".2" transform="translate(-936 -577)"><use fill="#318bfa" xlink:href="#xcwqc"/></g></g>
</svg>