<svg xmlns="http://www.w3.org/2000/svg" xmlns:xlink="http://www.w3.org/1999/xlink" viewBox="0 0 50 51">
    <defs><path id="355xa" d="M977.21 330.5c0 4.4-3.6 8-8 8h-24c-4.4 0-8-3.6-8-8v-24c0-4.4 3.6-8 8-8h24c4.4 0 8 3.6 8 8v24z"/><path id="355xb" d="M945.71 298.75a8.25 8.25 0 1 1-16.5 0 8.25 8.25 0 0 1 16.5 0z"/><path id="355xc" d="M959.46 327.75a2 2 0 0 1-2 2h-8a2 2 0 0 1-2-2v-3.5c0-1.1.9-2 2-2h8a2 2 0 0 1 2 2z"/><path id="355xd" d="M966.46 313.75a2 2 0 0 1-2 2h-15a2 2 0 0 1-2-2v-3.5c0-1.1.9-2 2-2h15a2 2 0 0 1 2 2z"/></defs><g><g transform="translate(-928 -289)"><use fill="#fff" fill-opacity="0" stroke="#e36161" stroke-miterlimit="50" stroke-width="1.5" xlink:href="#355xa"/></g><g transform="translate(-928 -289)"><use fill="#fff" fill-opacity="0" stroke="#e36161" stroke-miterlimit="50" stroke-width="1.5" xlink:href="#355xb"/></g><g opacity=".2" transform="translate(-928 -289)"><use fill="#e36161" xlink:href="#355xc"/></g><g opacity=".2" transform="translate(-928 -289)"><use fill="#e36161" xlink:href="#355xd"/></g></g>
</svg>