<svg xmlns="http://www.w3.org/2000/svg" xmlns:xlink="http://www.w3.org/1999/xlink" viewBox="0 0 50 50"><defs>
    <path id="98xsa" d="M460.73 1252c0 4.4 3.6 8 8 8h24c4.4 0 8-3.6 8-8v-24c0-4.4-3.6-8-8-8h-24c-4.4 0-8 3.6-8 8z"/><path id="98xsb" d="M460.73 1252c0 4.4 3.6 8 8 8h24c4.4 0 8-3.6 8-8v-24c0-4.4-3.6-8-8-8h-24c-4.4 0-8 3.6-8 8v24z"/><path id="98xsc" d="M492.23 1220.25a8.25 8.25 0 1 0 16.5 0 8.25 8.25 0 0 0-16.5 0z"/></defs><g><g transform="translate(-460 -1211)"><use fill="#fff" xlink:href="#98xsa"/></g><g transform="translate(-460 -1211)"><use fill="#fff" fill-opacity="0" stroke="#fcb415" stroke-miterlimit="50" stroke-width="1.5" xlink:href="#98xsb"/></g><g transform="translate(-460 -1211)"><use fill="#fff" fill-opacity="0" stroke="#fcb415" stroke-miterlimit="50" stroke-width="1.5" xlink:href="#98xsc"/></g></g>
</svg>